<?xml version="1.0" encoding="utf-8"?>
<!-- Generator: Adobe Illustrator 23.0.2, SVG Export Plug-In . SVG Version: 6.00 Build 0)  -->
<svg version="1.1" id="Слой_1" xmlns="http://www.w3.org/2000/svg" xmlns:xlink="http://www.w3.org/1999/xlink" x="0px" y="0px"
	 viewBox="0 0 99.52 92.03" style="enable-background:new 0 0 99.52 92.03;" xml:space="preserve">
<style type="text/css">
	.st0{fill:#32445C;}
	.st1{fill-rule:evenodd;clip-rule:evenodd;fill:#C9C8C8;}
	.st2{fill-rule:evenodd;clip-rule:evenodd;fill:#32445C;}
</style>
<path class="st0" d="M49.07,61.17l-3.58,9.01H20.01l14.98-37.74h25.48l-3.46,8.71H41.73l-2.17,5.47h12.36l-3.33,8.38H36.23
	l-2.45,6.16H49.07L49.07,61.17z M99.52,32.44L84.54,70.18h-9.65L85.6,43.2L68.61,70.18h-6.6l4.21-26.98L55.51,70.18h-7.79
	l14.98-37.74h13.57l-3.04,20.04l12.65-20.04H99.52L99.52,32.44z"/>
<polygon class="st1" points="22.29,71.97 22.73,73.31 24.14,73.31 22.99,74.14 23.43,75.48 22.29,74.65 21.15,75.48 21.59,74.14 
	20.44,73.31 21.86,73.31 22.29,71.97 "/>
<polygon class="st1" points="27.28,71.97 27.72,73.31 29.13,73.31 27.99,74.14 28.43,75.48 27.28,74.65 26.14,75.48 26.58,74.14 
	25.44,73.31 26.85,73.31 27.28,71.97 "/>
<polygon class="st1" points="32.28,71.97 32.71,73.31 34.12,73.31 32.98,74.14 33.42,75.48 32.28,74.65 31.13,75.48 31.57,74.14 
	30.43,73.31 31.84,73.31 32.28,71.97 "/>
<polygon class="st1" points="37.27,71.97 37.7,73.31 39.11,73.31 37.97,74.14 38.41,75.48 37.27,74.65 36.13,75.48 36.56,74.14 
	35.42,73.31 36.83,73.31 37.27,71.97 "/>
<polygon class="st1" points="42.26,71.97 42.69,73.31 44.11,73.31 42.96,74.14 43.4,75.48 42.26,74.65 41.12,75.48 41.56,74.14 
	40.41,73.31 41.83,73.31 42.26,71.97 "/>
<polygon class="st1" points="47.25,71.97 47.69,73.31 49.1,73.31 47.95,74.14 48.39,75.48 47.25,74.65 46.11,75.48 46.55,74.14 
	45.4,73.31 46.82,73.31 47.25,71.97 "/>
<polygon class="st1" points="52.24,71.97 52.68,73.31 54.09,73.31 52.95,74.14 53.39,75.48 52.24,74.65 51.1,75.48 51.54,74.14 
	50.4,73.31 51.81,73.31 52.24,71.97 "/>
<polygon class="st1" points="57.24,71.97 57.67,73.31 59.08,73.31 57.94,74.14 58.38,75.48 57.24,74.65 56.09,75.48 56.53,74.14 
	55.39,73.31 56.8,73.31 57.24,71.97 "/>
<polygon class="st1" points="62.23,71.97 62.66,73.31 64.08,73.31 62.93,74.14 63.37,75.48 62.23,74.65 61.09,75.48 61.53,74.14 
	60.38,73.31 61.79,73.31 62.23,71.97 "/>
<polygon class="st1" points="67.22,71.97 67.65,73.31 69.07,73.31 67.92,74.14 68.36,75.48 67.22,74.65 66.08,75.48 66.52,74.14 
	65.37,73.31 66.79,73.31 67.22,71.97 "/>
<polygon class="st1" points="72.21,71.97 72.65,73.31 74.06,73.31 72.91,74.14 73.35,75.48 72.21,74.65 71.07,75.48 71.51,74.14 
	70.36,73.31 71.78,73.31 72.21,71.97 "/>
<polygon class="st1" points="77.2,71.97 77.64,73.31 79.05,73.31 77.91,74.14 78.35,75.48 77.2,74.65 76.06,75.48 76.5,74.14 
	75.36,73.31 76.77,73.31 77.2,71.97 "/>
<polygon class="st1" points="82.2,71.97 82.63,73.31 84.04,73.31 82.9,74.14 83.34,75.48 82.2,74.65 81.05,75.48 81.49,74.14 
	80.35,73.31 81.76,73.31 82.2,71.97 "/>
<path class="st1" d="M3.19,41.8c0.83,0.33,1.66,0.67,2.49,1c0.83,0.33,1.66,0.66,2.48,0.99c0.84-0.67,1.68-1.33,2.53-1.99
	c0.84-0.66,1.69-1.33,2.53-2c-0.34,0.87-0.68,1.74-1.02,2.61c-0.34,0.87-0.67,1.73-1.01,2.59c0.82,0.33,1.64,0.65,2.45,0.97
	c0.81,0.32,1.63,0.65,2.44,0.97c-1.02,0.21-2.04,0.41-3.06,0.61c-1.02,0.21-2.04,0.41-3.07,0.62c-0.33,0.86-0.67,1.72-0.99,2.57
	c-0.33,0.85-0.66,1.71-0.98,2.56c-0.3-0.72-0.6-1.45-0.9-2.17c-0.3-0.73-0.6-1.46-0.9-2.19c-1.03,0.21-2.06,0.42-3.09,0.63
	C2.06,49.78,1.03,50,0,50.21c0.84-0.66,1.68-1.32,2.52-1.98c0.84-0.66,1.69-1.32,2.53-1.98c-0.31-0.74-0.62-1.48-0.93-2.21
	C3.82,43.29,3.5,42.54,3.19,41.8L3.19,41.8z"/>
<path class="st1" d="M20.98,19.31c0.44,0.91,0.87,1.81,1.3,2.7c0.42,0.88,0.85,1.75,1.26,2.61c1.25-0.39,2.5-0.78,3.74-1.17
	c1.24-0.39,2.48-0.77,3.72-1.16c-1.01,0.91-2.01,1.82-3,2.73c-0.99,0.9-1.98,1.8-2.96,2.69c0.4,0.81,0.79,1.62,1.18,2.42
	c0.39,0.79,0.77,1.58,1.15,2.35c-0.97-0.24-1.95-0.49-2.93-0.74c-0.99-0.25-1.99-0.51-2.99-0.76c-0.96,0.88-1.93,1.76-2.88,2.63
	c-0.95,0.87-1.9,1.73-2.84,2.59c0.31-1.01,0.63-2.02,0.95-3.05c0.32-1.03,0.65-2.07,0.98-3.13c-1.05-0.26-2.11-0.52-3.17-0.79
	c-1.07-0.27-2.16-0.54-3.24-0.81c1.28-0.4,2.56-0.79,3.84-1.19c1.27-0.39,2.54-0.79,3.81-1.18c0.34-1.1,0.68-2.21,1.03-3.33
	C20.27,21.61,20.62,20.46,20.98,19.31L20.98,19.31z"/>
<path class="st1" d="M38.39,5.43c1.4,0.4,2.79,0.81,4.19,1.21c1.39,0.4,2.79,0.81,4.19,1.21c1.38-1.29,2.77-2.59,4.17-3.9
	c1.4-1.31,2.81-2.63,4.23-3.95c-0.55,1.57-1.1,3.14-1.65,4.69c-0.54,1.55-1.08,3.09-1.62,4.63c1.39,0.4,2.79,0.8,4.18,1.19
	c1.39,0.39,2.78,0.79,4.18,1.18c-1.73,0.54-3.46,1.08-5.17,1.62c-1.71,0.54-3.43,1.08-5.13,1.61c-0.52,1.51-1.04,3.01-1.56,4.5
	c-0.51,1.49-1.02,2.97-1.54,4.44c-0.53-1.15-1.06-2.31-1.58-3.46c-0.53-1.16-1.06-2.33-1.59-3.5c-1.69,0.54-3.38,1.08-5.06,1.61
	c-1.68,0.53-3.36,1.07-5.03,1.59c1.34-1.24,2.68-2.49,4.03-3.74c1.35-1.26,2.71-2.52,4.08-3.79c-0.55-1.18-1.1-2.37-1.65-3.56
	C39.5,7.83,38.94,6.63,38.39,5.43L38.39,5.43z"/>
<path class="st2" d="M64.08,10.93c15.8-0.65,26.63,4.45,26.25,17.54C86.24,16.68,76.63,11.93,64.08,10.93L64.08,10.93z"/>
<path class="st2" d="M65.98,78.33c-3.69,2.46-13.93,10.6-25.22,12.56c-10.11,1.76-19.45,2.62-29.54-6.35
	C3.76,77.91,4.04,64.55,5,59.26c2.15,11.53,2.97,19.71,18.35,25.33c12.53,4.57,31.52-1.29,39.15-6.58
	C63.82,78.14,65,78.25,65.98,78.33L65.98,78.33z"/>
</svg>
