<?xml version="1.0" encoding="utf-8"?>
<!-- Generator: Adobe Illustrator 23.0.2, SVG Export Plug-In . SVG Version: 6.00 Build 0)  -->
<svg version="1.1" id="Слой_1" xmlns="http://www.w3.org/2000/svg" xmlns:xlink="http://www.w3.org/1999/xlink" x="0px" y="0px"
	 viewBox="0 0 392 392" style="enable-background:new 0 0 392 392;" xml:space="preserve">
<g>
	<path d="M195.46,0C124.63,0,67,57.59,67,128.38c0,68.03,116.74,252.12,121.71,259.92c1.47,2.31,4.01,3.7,6.75,3.7
		c2.73,0,5.28-1.4,6.75-3.7c4.97-7.8,121.72-191.89,121.72-259.92C323.92,57.59,266.29,0,195.46,0L195.46,0z M195.46,368.9
		c-10.57-17.09-32.01-52.47-53.24-91.67C103.48,205.69,83,154.23,83,128.38C83,66.41,133.45,16,195.46,16
		s112.46,50.41,112.46,112.38c0,25.85-20.48,77.32-59.22,148.85C227.47,316.43,206.03,351.81,195.46,368.9L195.46,368.9z
		 M195.46,368.9"/>
	<path d="M195.46,60.85c-33.51,0-60.77,26.52-60.77,59.12c0,32.59,27.26,59.11,60.77,59.11s60.77-26.52,60.77-59.11
		C256.23,87.38,228.97,60.85,195.46,60.85L195.46,60.85z M195.46,163.09c-24.68,0-44.77-19.34-44.77-43.11
		c0-23.77,20.09-43.12,44.77-43.12c24.68,0,44.77,19.34,44.77,43.12C240.23,143.74,220.15,163.09,195.46,163.09L195.46,163.09z
		 M195.46,163.09"/>
</g>
</svg>
