<?xml version="1.0" encoding="utf-8"?>
<!-- Generator: Adobe Illustrator 23.0.2, SVG Export Plug-In . SVG Version: 6.00 Build 0)  -->
<svg version="1.1" id="Слой_1" xmlns="http://www.w3.org/2000/svg" xmlns:xlink="http://www.w3.org/1999/xlink" x="0px" y="0px"
	 viewBox="0 0 369.6 370" style="enable-background:new 0 0 369.6 370;" xml:space="preserve">
<style type="text/css">
	.st0{fill:#FFFFFF;}
</style>
<path class="st0" d="M184.8,5.38c-36.37,0-65.86,29.49-65.86,65.86s29.49,65.86,65.86,65.86s65.86-29.49,65.86-65.86
	S221.17,5.38,184.8,5.38z M184.8,115.03c-24.19,0-43.8-19.61-43.8-43.8s19.61-43.8,43.8-43.8s43.8,19.61,43.8,43.8
	S208.99,115.03,184.8,115.03z"/>
<path class="st0" d="M71.63,364.62c8.91,0,16.22-6.98,16.73-15.87c4.75-82.47,46.12-146.94,96.44-146.94s91.7,64.47,96.44,146.94
	c0.51,8.9,7.82,15.87,16.73,15.87h0c9.6,0,17.3-8.05,16.73-17.63c-5.93-99.98-61.83-178.35-129.91-178.35S60.83,247.01,54.89,346.99
	C54.33,356.57,62.03,364.62,71.63,364.62L71.63,364.62z"/>
</svg>
