<?xml version="1.0" encoding="utf-8"?>
<!-- Generator: Adobe Illustrator 23.0.2, SVG Export Plug-In . SVG Version: 6.00 Build 0)  -->
<svg version="1.1" id="Слой_1" xmlns="http://www.w3.org/2000/svg" xmlns:xlink="http://www.w3.org/1999/xlink" x="0px" y="0px"
	 viewBox="0 0 369.6 370" style="enable-background:new 0 0 369.6 370;" xml:space="preserve">
<style type="text/css">
	.st0{fill:#0D0E0F;}
	.st1{opacity:0.97;fill:#0D0E0F;}
</style>
<path class="st0" d="M184.8,23.41c-89.14,0-161.39,72.26-161.39,161.39S95.66,346.19,184.8,346.19s161.39-72.26,161.39-161.39
	S273.94,23.41,184.8,23.41z M184.8,325.93c-77.85,0-140.95-63.11-140.95-140.95S106.95,44.02,184.8,44.02
	s140.95,63.11,140.95,140.95S262.65,325.93,184.8,325.93z"/>
<path class="st1" d="M177.93,79.55v100.48c0,5.85-4.74,10.6-10.6,10.6h-55.46c-5.85,0-10.6,4.74-10.6,10.6v0
	c0,5.85,4.74,10.6,10.6,10.6l65.92,0.15c11.77,0.03,21.33-9.51,21.33-21.29V79.55c0-5.85-4.74-10.6-10.6-10.6h0
	C182.68,68.95,177.93,73.69,177.93,79.55z"/>
</svg>
