<?xml version="1.0" encoding="utf-8"?>
<!-- Generator: Adobe Illustrator 23.0.2, SVG Export Plug-In . SVG Version: 6.00 Build 0)  -->
<svg version="1.1" id="Слой_1" xmlns="http://www.w3.org/2000/svg" xmlns:xlink="http://www.w3.org/1999/xlink" x="0px" y="0px"
	 viewBox="0 0 359.92 360" style="enable-background:new 0 0 359.92 360;" xml:space="preserve">
<style type="text/css">
	.st0{clip-path:url(#SVGID_2_);}
</style>
<g>
	<g>
		<defs>
			<rect id="SVGID_1_" x="-1.04" width="360.96" height="361.92"/>
		</defs>
		<clipPath id="SVGID_2_">
			<use xlink:href="#SVGID_1_"  style="overflow:visible;"/>
		</clipPath>
		<path class="st0" d="M356.56,342.56l-87.68-87.68c23.52-27.04,37.76-62.32,37.76-100.88c0-84.88-69.04-153.84-153.84-153.84
			C67.92,0.16-1.04,69.2-1.04,154S68,307.84,152.8,307.84c38.56,0,73.84-14.24,100.88-37.76l87.68,87.68c2.08,2.08,4.88,3.2,7.6,3.2
			c2.72,0,5.52-1.04,7.6-3.2C360.72,353.6,360.72,346.72,356.56,342.56L356.56,342.56z M20.48,154
			c0-72.96,59.36-132.24,132.24-132.24c72.96,0,132.24,59.36,132.24,132.24s-59.28,132.32-132.24,132.32
			C79.84,286.32,20.48,226.96,20.48,154L20.48,154z M20.48,154"/>
	</g>
</g>
</svg>
