<?xml version="1.0" encoding="utf-8"?>
<!-- Generator: Adobe Illustrator 23.0.2, SVG Export Plug-In . SVG Version: 6.00 Build 0)  -->
<svg version="1.1" id="Слой_1" xmlns="http://www.w3.org/2000/svg" xmlns:xlink="http://www.w3.org/1999/xlink" x="0px" y="0px"
	 viewBox="0 0 779.52 532.36" style="enable-background:new 0 0 779.52 532.36;" xml:space="preserve">
<style type="text/css">
	.st0{clip-path:url(#SVGID_2_);fill:#FFFFFF;}
	.st1{clip-path:url(#SVGID_4_);fill:#FFFFFF;}
</style>
<g>
	<g>
		<defs>
			<rect id="SVGID_1_" y="154.6" width="389.76" height="377.76"/>
		</defs>
		<clipPath id="SVGID_2_">
			<use xlink:href="#SVGID_1_"  style="overflow:visible;"/>
		</clipPath>
		<path class="st0" d="M370.24,293.88c-9.84-8.4-22.16-12.96-34.64-12.96h-84.08V220.2c0-25.52-7.44-43.92-22.16-54.72
			c-23.28-17.12-55.36-7.36-56.72-6.88c-4,1.28-6.72,4.96-6.72,9.12v67.92c0,22.16-10.56,40.96-31.44,55.92
			c-15.6,11.2-31.52,16.08-33.2,16.64l-2.32,0.56c-3.44-5.84-9.76-9.76-17.04-9.76H19.76C8.88,299,0,307.88,0,318.76v182.72
			c0,10.88,8.88,19.76,19.76,19.76h62.32c6.08,0,11.6-2.8,15.2-7.12c10,10.64,24.16,17.28,39.52,17.28h166.24
			c36.72,0,60.16-19.2,64.32-52.8l21.52-133.52C391.84,325.88,384.72,306.2,370.24,293.88L370.24,293.88z M82.56,501.48
			c0,0.32-0.24,0.56-0.56,0.56H19.76c-0.32,0-0.56-0.24-0.56-0.56V318.76c0-0.32,0.24-0.56,0.56-0.56h62.32
			c0.32,0,0.56,0.24,0.56,0.56v182.72H82.56z M369.76,342.04L348.32,475.8c0,0.08,0,0.24-0.08,0.4
			c-2.96,23.92-18.16,36.08-45.28,36.08H136.72c-17.04,0-31.84-12.72-34.48-29.52c-0.08-0.56-0.24-1.12-0.4-1.68V327.8l4.16-0.96
			c0.16,0,0.24-0.08,0.4-0.08c0.8-0.24,19.76-5.6,38.88-19.2c26.16-18.56,39.92-43.44,39.92-71.92V175.4
			c8.32-1.36,22.56-2.08,32.88,5.6c9.44,6.96,14.24,20.16,14.24,39.2v70.24c0,5.28,4.32,9.6,9.6,9.6h93.68
			c7.92,0,15.84,2.96,22.16,8.4C367.2,316.52,371.84,329.4,369.76,342.04L369.76,342.04z M369.76,342.04"/>
	</g>
</g>
<g>
	<g>
		<defs>
			<rect id="SVGID_3_" x="389.76" width="389.76" height="377.76"/>
		</defs>
		<clipPath id="SVGID_4_">
			<use xlink:href="#SVGID_3_"  style="overflow:visible;"/>
		</clipPath>
		<path class="st1" d="M409.28,238.48c9.84,8.4,22.16,12.96,34.64,12.96H528v60.72c0,25.52,7.44,43.92,22.16,54.72
			c23.28,17.12,55.36,7.36,56.72,6.88c4-1.28,6.72-4.96,6.72-9.12v-67.92c0-22.16,10.56-40.96,31.44-55.92
			c15.6-11.2,31.52-16.08,33.2-16.64l2.32-0.56c3.44,5.84,9.76,9.76,17.04,9.76h62.16c10.88,0,19.76-8.88,19.76-19.76V30.88
			c0-10.88-8.88-19.76-19.76-19.76h-62.32c-6.08,0-11.6,2.8-15.2,7.12c-10-10.64-24.16-17.28-39.52-17.28H476.48
			c-36.72,0-60.16,19.2-64.32,52.8l-21.52,133.52C387.68,206.48,394.8,226.16,409.28,238.48L409.28,238.48z M696.96,30.88
			c0-0.32,0.24-0.56,0.56-0.56h62.24c0.32,0,0.56,0.24,0.56,0.56V213.6c0,0.32-0.24,0.56-0.56,0.56h-62.32
			c-0.32,0-0.56-0.24-0.56-0.56V30.88H696.96z M409.76,190.32L431.2,56.56c0-0.08,0-0.24,0.08-0.4
			c2.96-23.92,18.16-36.08,45.28-36.08H642.8c17.04,0,31.84,12.72,34.48,29.52c0.08,0.56,0.24,1.12,0.4,1.68v153.28l-4.16,0.96
			c-0.16,0-0.24,0.08-0.4,0.08c-0.8,0.24-19.76,5.6-38.88,19.2c-26.16,18.56-39.92,43.44-39.92,71.92v60.24
			c-8.32,1.36-22.56,2.08-32.88-5.6c-9.44-6.96-14.24-20.16-14.24-39.2v-70.24c0-5.28-4.32-9.6-9.6-9.6h-93.68
			c-7.92,0-15.84-2.96-22.16-8.4C412.32,215.84,407.68,202.96,409.76,190.32L409.76,190.32z M409.76,190.32"/>
	</g>
</g>
</svg>
