<?xml version="1.0" encoding="utf-8"?>
<!-- Generator: Adobe Illustrator 23.0.2, SVG Export Plug-In . SVG Version: 6.00 Build 0)  -->
<svg version="1.1" id="Слой_1" xmlns="http://www.w3.org/2000/svg" xmlns:xlink="http://www.w3.org/1999/xlink" x="0px" y="0px"
	 viewBox="0 0 369.6 370" style="enable-background:new 0 0 369.6 370;" xml:space="preserve">
<style type="text/css">
	.st0{clip-path:url(#SVGID_2_);fill:#FCFCFC;}
</style>
<g>
	<g>
		<defs>
			<rect id="SVGID_1_" x="-1.2" width="370.8" height="371.76"/>
		</defs>
		<clipPath id="SVGID_2_">
			<use xlink:href="#SVGID_1_"  style="overflow:visible;"/>
		</clipPath>
		<path class="st0" d="M368.95,305.26c-1.17-8.9-6.32-16.57-14.09-21.06l-91.38-52.61c-11.19-6.44-25.39-4.57-34.52,4.57l-18,18
			c-4.79,4.79-12.37,5.21-17.63,0.98c-14.19-11.42-28.16-23.98-41.52-37.35c-13.36-13.36-25.93-27.33-37.35-41.52
			c-4.23-5.26-3.8-12.83,0.99-17.63l18-18c9.13-9.13,11.01-23.33,4.57-34.52L85.39,14.74C80.91,6.96,73.24,1.82,64.34,0.65
			c-8.9-1.18-17.65,1.79-24,8.14L13.22,35.9c-18.93,18.93-19.23,53.56-0.86,97.5c17.67,42.25,50.65,88.77,92.85,130.98
			c42.21,42.21,88.72,75.18,130.98,92.85c21.63,9.04,41,13.57,57.36,13.56c16.87,0,30.53-4.81,40.14-14.42l27.12-27.12
			C367.16,322.91,370.13,314.16,368.95,305.26L368.95,305.26z M257.49,241.99l91.38,52.62c4.52,2.6,7.5,7.06,8.19,12.23
			c0.57,4.34-0.56,8.61-3.11,12.06L232.5,249.58l4.93-4.93C242.74,239.34,250.99,238.25,257.49,241.99L257.49,241.99z M62.76,12.55
			c5.17,0.68,9.63,3.67,12.23,8.19l52.61,91.38c3.75,6.5,2.66,14.75-2.65,20.05l-4.53,4.53L50.73,15.65
			c2.85-2.11,6.25-3.25,9.81-3.25C61.28,12.4,62.02,12.44,62.76,12.55L62.76,12.55z M325.21,347.89
			c-15.04,15.04-45.79,14.41-84.38-1.73c-40.85-17.08-85.99-49.14-127.12-90.27s-73.18-86.27-90.26-127.12
			C7.3,90.18,6.67,59.43,21.71,44.39l20.13-20.13l69.8,121.23l-4.68,4.68c-9.13,9.13-9.93,23.59-1.85,33.63
			c11.69,14.52,24.55,28.82,38.22,42.48c13.67,13.67,27.96,26.53,42.48,38.21c10.04,8.08,24.5,7.28,33.63-1.85l4.27-4.27
			l121.61,69.41L325.21,347.89z M325.21,347.89"/>
	</g>
</g>
</svg>
