<?xml version="1.0" encoding="utf-8"?>
<!-- Generator: Adobe Illustrator 23.0.2, SVG Export Plug-In . SVG Version: 6.00 Build 0)  -->
<svg version="1.1" id="Слой_1" xmlns="http://www.w3.org/2000/svg" xmlns:xlink="http://www.w3.org/1999/xlink" x="0px" y="0px"
	 viewBox="0 0 160 162" style="enable-background:new 0 0 160 162;" xml:space="preserve">
<style type="text/css">
	.st0{fill:#FFFFFF;}
	.st1{clip-path:url(#SVGID_2_);fill:#FFFFFF;}
</style>
<g>
	<path class="st0" d="M83.8,8.07c0,4.45-3.61,8.07-8.07,8.07c-4.45,0-8.07-3.61-8.07-8.07c0-4.45,3.61-8.07,8.07-8.07
		C80.19,0,83.8,3.61,83.8,8.07L83.8,8.07z M83.8,8.07"/>
	<g>
		<defs>
			<rect id="SVGID_1_" x="14" width="132" height="162"/>
		</defs>
		<clipPath id="SVGID_2_">
			<use xlink:href="#SVGID_1_"  style="overflow:visible;"/>
		</clipPath>
		<path class="st1" d="M126.54,8.07c0,4.45-3.61,8.07-8.07,8.07c-4.45,0-8.07-3.61-8.07-8.07c0-4.45,3.61-8.07,8.07-8.07
			C122.93,0,126.54,3.61,126.54,8.07L126.54,8.07z M126.54,8.07"/>
		<path class="st1" d="M142.51,15.4c-4.1-7.1-11.44-11.34-19.64-11.34v8c5.31,0,10.05,2.74,12.71,7.34c2.65,4.59,2.65,10.08,0,14.68
			l-25.7,44.51c-2.65,4.59-7.4,7.34-12.71,7.34c-5.31,0-10.06-2.74-12.71-7.34l-25.7-44.51c-2.65-4.59-2.65-10.08,0-14.67
			c2.65-4.59,7.4-7.34,12.71-7.34v-8c-8.2,0-15.53,4.24-19.64,11.34c-4.1,7.1-4.1,15.58,0,22.67l25.7,44.51
			c3.42,5.92,9.09,9.84,15.64,10.98v21.46c0,20.97-12.38,38.03-27.59,38.03S37.99,136,37.99,115.03V89.47
			c9.11-1.86,15.99-9.93,15.99-19.59c0-11.02-8.96-19.99-19.99-19.99C22.97,49.9,14,58.86,14,69.89c0,9.65,6.88,17.73,15.99,19.59
			v25.56c0,25.38,15.97,46.03,35.59,46.03c19.63,0,35.59-20.65,35.59-46.03V93.57c6.54-1.14,12.22-5.06,15.64-10.98l25.7-44.51
			C146.61,30.98,146.61,22.5,142.51,15.4L142.51,15.4z M142.51,15.4"/>
	</g>
</g>
</svg>
