<?xml version="1.0" encoding="utf-8"?>
<!-- Generator: Adobe Illustrator 23.0.2, SVG Export Plug-In . SVG Version: 6.00 Build 0)  -->
<svg version="1.1" id="Слой_1" xmlns="http://www.w3.org/2000/svg" xmlns:xlink="http://www.w3.org/1999/xlink" x="0px" y="0px"
	 viewBox="0 0 360.2 383.04" style="enable-background:new 0 0 360.2 383.04;" xml:space="preserve">
<style type="text/css">
	.st0{clip-path:url(#SVGID_2_);fill:#FFFFFF;}
	.st1{clip-path:url(#SVGID_4_);fill:#FFFFFF;}
</style>
<g>
	<g>
		<g>
			<g>
				<defs>
					<rect id="SVGID_1_" x="-0.38" y="-2.88" width="360.96" height="388.8"/>
				</defs>
				<clipPath id="SVGID_2_">
					<use xlink:href="#SVGID_1_"  style="overflow:visible;"/>
				</clipPath>
				<path class="st0" d="M192.22,171.68c1.84,1.84,4.32,2.8,6.8,2.8s4.88-0.96,6.8-2.8l59.12-59.12c3.76-3.76,3.76-9.84,0-13.6
					s-9.84-3.76-13.6,0l-52.32,52.4l-21.12-21.12c-3.76-3.76-9.84-3.76-13.6,0c-3.76,3.76-3.76,9.84,0,13.6L192.22,171.68z"/>
			</g>
		</g>
		<g>
			<g>
				<defs>
					<rect id="SVGID_3_" x="-0.38" y="-2.88" width="360.96" height="388.8"/>
				</defs>
				<clipPath id="SVGID_4_">
					<use xlink:href="#SVGID_3_"  style="overflow:visible;"/>
				</clipPath>
				<path class="st1" d="M101.82,251.68h215.12c23.76,0,43.04-19.36,43.04-43.04V118c0-5.28-4.32-9.6-9.6-9.6s-9.6,4.32-9.6,9.6
					v90.56c0,13.2-10.72,23.84-23.84,23.84H101.82c-13.2,0-23.84-10.72-23.84-23.84V31.6c0-0.32,0-0.72-0.08-1.04v-0.24
					c0-0.24-0.08-0.48-0.08-0.64s-0.08-0.4-0.16-0.56c0-0.08-0.08-0.24-0.08-0.32c-0.08-0.24-0.16-0.4-0.24-0.64
					c0-0.08-0.08-0.16-0.08-0.24c-0.08-0.16-0.16-0.4-0.24-0.56c-0.08-0.08-0.08-0.24-0.16-0.32l-0.24-0.48
					c-0.08-0.16-0.16-0.24-0.24-0.4c-0.08-0.08-0.16-0.24-0.24-0.32c-0.08-0.16-0.24-0.32-0.32-0.4l-0.24-0.24
					c-0.16-0.16-0.24-0.32-0.4-0.48c-0.08-0.08-0.16-0.16-0.24-0.16c-0.16-0.16-0.32-0.32-0.48-0.4l-0.24-0.24
					c-0.16-0.08-0.32-0.24-0.48-0.32c-0.16-0.16-0.4-0.24-0.56-0.4c-0.08,0-0.16-0.08-0.16-0.16l-0.96-0.48L12.94-2.24
					C8.06-4.32,2.46-2,0.38,2.88C-1.7,7.68,0.62,13.36,5.5,15.44l53.2,22.48V276c0,22.56,17.36,41.04,39.44,42.88
					c-4.48,6.72-7.12,14.8-7.12,23.52c0,23.44,19.12,42.56,42.56,42.56s42.56-19.12,42.56-42.56c0-8.64-2.56-16.64-6.96-23.36
					h101.84c-4.4,6.72-6.96,14.72-6.96,23.36c0,23.44,19.12,42.56,42.56,42.56s42.56-19.12,42.56-42.56s-19.12-42.56-42.56-42.56
					h-204.8c-13.2,0-23.84-10.72-23.84-23.84v-31.6C84.78,248.96,93.02,251.68,101.82,251.68L101.82,251.68z M156.94,342.4
					c0,12.88-10.48,23.36-23.36,23.36s-23.36-10.48-23.36-23.36s10.48-23.36,23.36-23.36C146.46,319.04,156.94,329.52,156.94,342.4
					L156.94,342.4z M329.91,342.4c0,12.88-10.48,23.36-23.36,23.36s-23.36-10.48-23.36-23.36s10.48-23.36,23.36-23.36
					C319.42,319.04,329.91,329.52,329.91,342.4L329.91,342.4z"/>
			</g>
		</g>
	</g>
</g>
</svg>
