<?xml version="1.0" encoding="utf-8"?>
<!-- Generator: Adobe Illustrator 23.0.2, SVG Export Plug-In . SVG Version: 6.00 Build 0)  -->
<svg version="1.1" id="Слой_1" xmlns="http://www.w3.org/2000/svg" xmlns:xlink="http://www.w3.org/1999/xlink" x="0px" y="0px"
	 viewBox="0 0 358.16 380.8" style="enable-background:new 0 0 358.16 380.8;" xml:space="preserve">
<style type="text/css">
	.st0{fill:#FFFFFF;}
</style>
<g>
	<path class="st0" d="M309.36,144.8v-14.64c0-35.04-12.4-67.6-34.88-91.76C251.44,13.6,219.76,0,185.2,0h-12.08
		c-34.56,0-66.24,13.6-89.28,38.4c-22.48,24.16-34.88,56.72-34.88,91.76v14.64C21.68,146.64,0,169.36,0,197.12V220
		c0,28.88,23.52,52.4,52.4,52.4h29.52c5.28,0,9.6-4.32,9.6-9.6V154.24c0-5.28-4.32-9.6-9.6-9.6H68.16v-14.48
		c0-63.28,45.12-110.96,104.88-110.96h12.08C244.96,19.2,290,66.88,290,130.16v14.48h-13.76c-5.28,0-9.6,4.32-9.6,9.6v108.48
		c0,5.28,4.32,9.6,9.6,9.6h13.44c-3.92,50.08-38.4,61.68-54.4,64.32c-4.4-13.52-17.12-23.28-32.08-23.28h-24
		c-18.56,0-33.68,15.12-33.68,33.68c0,18.56,15.12,33.76,33.68,33.76h24.08c15.52,0,28.56-10.56,32.48-24.8
		c7.84-1.12,20.24-3.92,32.56-11.12c17.36-10.16,37.92-30.88,40.64-72.64c27.44-1.68,49.2-24.48,49.2-52.32v-22.88
		C358.24,169.36,336.64,146.56,309.36,144.8L309.36,144.8z M72.48,253.12H52.56c-18.32,0-33.2-14.88-33.2-33.2v-22.88
		c0-18.32,14.88-33.2,33.2-33.2h19.92V253.12z M203.28,361.6H179.2c-8,0-14.48-6.48-14.48-14.48c0-8,6.48-14.48,14.48-14.48h24.08
		c8,0,14.48,6.48,14.48,14.48C217.76,355.12,211.28,361.6,203.28,361.6L203.28,361.6z M339.04,219.92c0,18.32-14.88,33.2-33.2,33.2
		h-19.92v-89.28h19.92c18.32,0,33.2,14.88,33.2,33.2V219.92z M339.04,219.92"/>
</g>
</svg>
